<svg width="17" height="17" viewBox="0 0 17 17" fill="none" xmlns="http://www.w3.org/2000/svg">
<path d="M6.25486 12.5733C6.23329 12.3568 6.21171 12.1534 6.18655 11.9069C6.43642 11.891 6.61707 11.8681 6.79684 11.8681C7.89517 11.8646 8.99262 11.8435 10.091 11.8716C12.4503 11.9333 14.4106 10.4595 15.1791 8.49878C16.2846 5.68322 14.7899 2.71799 12.1825 1.71608C11.4571 1.43787 10.7228 1.29964 9.95254 1.29964C7.38376 1.3014 4.81587 1.29964 2.24709 1.29964C2.10148 1.29964 1.95767 1.2926 1.81117 1.30492C1.4112 1.33662 1.35907 1.39297 1.33929 1.79003C1.3339 1.91153 1.33929 2.03303 1.33929 2.1554C1.33929 6.74148 1.33929 11.3249 1.33929 15.911C1.33929 16.1487 1.33929 16.3873 1.33929 16.6567C1.06785 16.6567 0.874611 16.6567 0.69485 16.6567C0.565422 16.1593 0.538458 1.41321 0.664291 0.706243C0.863826 0.681591 1.08403 0.632288 1.30154 0.632288C4.28378 0.627006 7.26601 0.655179 10.2491 0.621724C12.9689 0.59179 15.3409 2.45739 16.0267 4.88821C16.7035 7.28734 16.1309 9.44963 14.2317 11.184C13.3213 12.0178 12.178 12.4659 10.9682 12.5469C9.43033 12.6526 7.87271 12.5733 6.25486 12.5733Z" fill="#FAB957"/>
<path d="M2.10959 16.6553C2.10959 11.7734 2.10959 6.93373 2.10959 2.05008C2.32171 2.03247 2.50057 2.00606 2.68033 2.00606C5.24911 2.00253 7.8152 2.00077 10.384 2.00606C12.1843 2.00958 13.9424 3.35837 14.5508 4.94664C14.887 5.82441 14.9221 6.72244 14.7306 7.5738C14.372 9.16735 13.4273 10.3718 11.7807 10.9132C11.3969 11.04 10.9835 11.1316 10.5799 11.1404C9.27486 11.1685 7.9698 11.1545 6.66653 11.1509C6.4652 11.1509 6.23061 11.1861 6.18387 10.8974C6.14612 10.6597 6.28993 10.4686 6.55508 10.444C6.77978 10.4228 7.01077 10.4352 7.23727 10.4352C8.27179 10.4334 9.30901 10.4123 10.3435 10.4387C11.9434 10.4792 13.3437 9.3804 13.7976 8.06771C14.5949 5.75838 13.7114 4.0988 11.8445 3.06079C11.4877 2.86182 11.0275 2.75969 10.6132 2.75441C8.12888 2.72447 5.64369 2.7368 3.15759 2.73504C3.0767 2.73504 2.99581 2.75441 2.84122 2.77554C2.82504 3.02558 2.79448 3.28002 2.79448 3.53181C2.79088 7.60989 2.79268 11.6862 2.79268 15.7643C2.79268 15.9069 2.79807 16.0478 2.79088 16.1913C2.77021 16.6623 2.72347 16.6958 2.10959 16.6553Z" fill="#FAB957"/>
<path d="M4.19012 16.6563C3.92947 16.6563 3.73802 16.6563 3.50253 16.6563C3.50253 12.2595 3.50253 7.90937 3.50253 3.50026C3.73263 3.47737 3.95104 3.43511 4.17034 3.43511C6.17917 3.42983 8.1898 3.48089 10.1968 3.4175C11.8776 3.36467 13.2725 4.7346 13.4514 6.23835C13.6078 7.55369 12.9022 9.18421 11.2682 9.60241C10.8341 9.71334 10.3811 9.78906 9.93258 9.80138C8.9394 9.83132 7.94353 9.81017 6.95035 9.81017C6.74542 9.81017 6.53959 9.81017 6.35624 9.81017C6.07581 9.19653 6.14232 9.07856 6.74003 9.07504C7.85814 9.06976 8.97715 9.04511 10.0953 9.08032C11.3284 9.11906 12.3054 8.35751 12.6065 7.36528C12.9031 6.38538 12.6335 5.38699 11.687 4.62015C11.2547 4.26886 10.7478 4.11567 10.1986 4.11214C8.39652 4.10334 6.59532 4.10686 4.79322 4.11214C4.61346 4.11214 4.43459 4.15441 4.19192 4.18434C4.19012 8.35926 4.19012 12.4901 4.19012 16.6563Z" fill="#FAB957"/>
<path d="M6.23095 8.26915C6.20399 7.70656 6.23994 7.64318 6.71181 7.63966C7.81015 7.62909 8.90759 7.6379 10.0059 7.63437C10.2127 7.63437 10.4239 7.63613 10.6234 7.59563C10.9254 7.53401 11.1492 7.3632 11.187 7.03657C11.2103 6.83583 11.2319 6.6307 11.2211 6.42996C11.1852 5.79518 10.9137 5.54515 10.2297 5.53634C9.17364 5.52578 8.11664 5.53282 7.06055 5.53282C6.63002 5.53282 6.1986 5.53282 5.70875 5.53282C5.69077 5.84273 5.66201 6.09893 5.66201 6.35425C5.65841 9.49997 5.66021 12.6448 5.66021 15.7888C5.66021 15.9314 5.6674 16.0723 5.65841 16.2158C5.62965 16.6621 5.55775 16.7079 4.97263 16.634C4.97263 12.7179 4.97263 8.79564 4.97263 4.83906C5.17036 4.82321 5.33125 4.80032 5.49124 4.80032C7.04437 4.79856 8.59751 4.80736 10.1515 4.79679C10.9038 4.79151 11.4404 5.0979 11.8107 5.7362C12.2646 6.52065 11.933 7.81309 11.1429 8.24009C11.0225 8.30524 10.8715 8.3387 10.7322 8.3387C9.28329 8.34399 7.83442 8.34046 6.38375 8.33694C6.346 8.33606 6.30825 8.30613 6.23095 8.26915Z" fill="#FAB957"/>
</svg>
