<svg width="365" height="325" viewBox="0 0 365 325" fill="none" xmlns="http://www.w3.org/2000/svg">
<mask id="mask0" mask-type="alpha" maskUnits="userSpaceOnUse" x="0" y="0" width="365" height="325">
<rect width="364.665" height="325" rx="20" fill="#131313"/>
</mask>
<g mask="url(#mask0)">
<g opacity="0.45">
<path d="M120.419 259.114C119.974 254.44 119.529 249.988 119.084 244.645C124.426 244.2 128.21 243.755 131.995 243.755C155.368 243.755 178.741 243.31 201.891 243.755C251.976 245.09 293.602 213.259 310.074 170.742C333.447 109.75 301.838 45.4185 246.411 23.6037C230.829 17.8161 215.247 14.6997 198.997 14.6997C144.46 14.6997 89.9232 14.6997 35.3863 14.6997C32.2699 14.6997 29.1535 14.4771 26.2597 14.6997C17.5783 15.5901 16.4653 16.7031 16.0201 25.3845C15.7975 28.0557 16.0201 30.7269 16.0201 33.3981C16.0201 132.9 16.0201 232.18 16.0201 331.682C16.0201 336.801 16.0201 341.921 16.0201 347.931C10.2325 347.931 6.22575 347.931 2.44156 347.931C-0.452238 336.801 -0.897438 17.1483 1.77376 1.78893C6.00315 1.34374 10.6777 0.230737 15.3523 0.230737C78.7933 0.230737 142.012 0.675936 205.453 0.00813737C263.106 -0.659662 313.636 39.8535 328.105 92.6096C342.574 144.698 330.331 191.444 290.04 229.063C270.674 247.094 246.411 256.888 220.812 258.669C187.867 260.895 154.7 259.114 120.419 259.114Z" fill="#2C2C2C"/>
<path d="M32.2729 347.483C32.2729 241.748 32.2729 136.681 32.2729 30.9458C36.7249 30.5006 40.5091 30.0554 44.2933 30.0554C98.8302 30.0554 153.367 29.8328 207.904 30.0554C246.191 30.0554 283.365 59.4386 296.276 93.7189C303.399 112.863 304.067 132.229 300.06 150.704C292.492 185.207 272.458 211.252 237.51 223.049C229.274 225.721 220.592 227.724 211.911 227.947C184.309 228.614 156.484 228.169 128.881 228.169C124.652 228.169 119.532 228.837 118.642 222.604C117.751 217.484 120.868 213.255 126.433 212.81C131.33 212.365 136.004 212.587 140.902 212.587C162.939 212.587 184.976 212.142 206.791 212.587C240.849 213.478 270.455 189.659 280.249 161.167C297.167 111.082 278.468 75.0206 238.845 52.538C231.277 48.3086 221.483 46.0826 212.801 45.86C160.045 45.1922 107.289 45.4148 54.5329 45.4148C52.7521 45.4148 51.1939 45.86 47.8549 46.3052C47.4097 51.6476 46.9645 57.2126 46.9645 62.7776C46.9645 151.15 46.9645 239.522 46.9645 327.894C46.9645 331.01 47.1871 334.127 46.9645 337.02C46.2967 347.705 45.4063 348.373 32.2729 347.483Z" fill="#2C2C2C"/>
<path d="M76.567 347.708C71.002 347.708 66.9952 347.708 61.8754 347.708C61.8754 252.435 61.8754 158.053 61.8754 62.5577C66.7726 62.1125 71.4472 61.2221 76.1218 61.2221C118.861 61.2221 161.6 62.1125 204.117 60.7769C239.733 59.6639 269.338 89.2697 273.122 121.992C276.462 150.485 261.547 185.878 226.822 195.005C217.695 197.453 207.901 199.011 198.552 199.234C177.405 199.902 156.258 199.457 135.111 199.457C130.659 199.457 126.429 199.457 122.423 199.457C116.412 186.101 117.971 183.652 130.659 183.429C154.477 183.207 178.295 182.762 201.891 183.652C228.157 184.542 248.859 168.07 255.315 146.478C261.547 125.331 255.982 103.516 235.726 87.0437C226.599 79.4753 215.692 76.1363 204.117 76.1363C165.829 75.9137 127.542 75.9137 89.2552 76.1363C85.471 76.1363 81.6868 77.0267 76.567 77.6945C76.567 167.847 76.567 257.332 76.567 347.708Z" fill="#2C2C2C"/>
<path d="M119.751 165.844C119.083 153.601 119.974 152.265 129.991 152.265C153.364 152.043 176.514 152.265 199.887 152.043C204.339 152.043 208.791 152.043 213.021 151.152C219.476 149.817 224.151 146.033 225.041 139.132C225.486 134.68 225.931 130.451 225.709 125.999C225.041 112.197 219.253 106.855 204.562 106.632C182.079 106.41 159.597 106.632 137.337 106.632C128.21 106.632 119.083 106.632 108.621 106.632C108.176 113.31 107.731 118.875 107.731 124.44C107.731 192.556 107.731 260.894 107.731 329.01C107.731 332.126 107.953 335.242 107.731 338.136C107.063 347.708 105.505 348.821 93.2619 347.263C93.2619 262.452 93.2619 177.419 93.2619 91.4957C97.4913 91.0505 100.83 90.6053 104.169 90.6053C137.114 90.6053 170.059 90.8279 203.226 90.6053C219.253 90.3827 230.606 97.0607 238.397 110.862C247.969 127.779 241.068 155.827 224.151 165.176C221.702 166.512 218.363 167.402 215.469 167.402C184.75 167.625 153.809 167.402 123.09 167.402C122.2 167.18 121.532 166.512 119.751 165.844Z" fill="#2C2C2C"/>
</g>
</g>
</svg>
