<svg width="96" height="18" viewBox="0 0 96 18" fill="none" xmlns="http://www.w3.org/2000/svg">
<path d="M6.05808 12.5733C6.03651 12.3568 6.01494 12.1534 5.98977 11.9069C6.23964 11.891 6.4203 11.8681 6.60006 11.8681C7.6984 11.8646 8.79584 11.8435 9.89418 11.8716C12.2535 11.9333 14.2138 10.4595 14.9823 8.49878C16.0878 5.68322 14.5931 2.71799 11.9857 1.71608C11.2604 1.43787 10.526 1.29964 9.75576 1.29964C7.18698 1.3014 4.61909 1.29964 2.05031 1.29964C1.9047 1.29964 1.76089 1.2926 1.61439 1.30492C1.21442 1.33662 1.16229 1.39297 1.14252 1.79003C1.13712 1.91153 1.14252 2.03303 1.14252 2.1554C1.14252 6.74148 1.14252 11.3249 1.14252 15.911C1.14252 16.1487 1.14252 16.3873 1.14252 16.6567C0.871077 16.6567 0.677834 16.6567 0.498073 16.6567C0.368645 16.1593 0.341681 1.41321 0.467514 0.706243C0.667048 0.681591 0.887255 0.632288 1.10477 0.632288C4.087 0.627006 7.06923 0.655179 10.0524 0.621724C12.7722 0.59179 15.1441 2.45739 15.8299 4.88821C16.5067 7.28734 15.9341 9.44963 14.035 11.184C13.1245 12.0178 11.9812 12.4659 10.7714 12.5469C9.23356 12.6526 7.67593 12.5733 6.05808 12.5733Z" fill="#FAB957"/>
<path d="M1.91281 16.6553C1.91281 11.7734 1.91281 6.93374 1.91281 2.05009C2.12493 2.03248 2.30379 2.00607 2.48355 2.00607C5.05234 2.00254 7.61842 2.00078 10.1872 2.00607C11.9875 2.00959 13.7456 3.35838 14.3541 4.94665C14.6902 5.82442 14.7253 6.72245 14.5338 7.57381C14.1752 9.16736 13.2306 10.3718 11.584 10.9132C11.2002 11.04 10.7867 11.1316 10.3831 11.1404C9.07808 11.1685 7.77302 11.1545 6.46975 11.1509C6.26842 11.1509 6.03383 11.1861 5.98709 10.8974C5.94934 10.6597 6.09315 10.4686 6.3583 10.444C6.583 10.4228 6.81399 10.4352 7.04049 10.4352C8.07502 10.4334 9.11224 10.4123 10.1468 10.4387C11.7466 10.4792 13.147 9.38041 13.6009 8.06772C14.3981 5.75839 13.5146 4.09881 11.6478 3.0608C11.2909 2.86183 10.8308 2.7597 10.4164 2.75442C7.93211 2.72448 5.44691 2.73681 2.96082 2.73505C2.87993 2.73505 2.79903 2.75442 2.64444 2.77555C2.62826 3.02559 2.5977 3.28003 2.5977 3.53182C2.59411 7.6099 2.5959 11.6862 2.5959 15.7643C2.5959 15.9069 2.6013 16.0478 2.59411 16.1913C2.57343 16.6623 2.52669 16.6958 1.91281 16.6553Z" fill="#FAB957"/>
<path d="M3.99334 16.6563C3.73269 16.6563 3.54124 16.6563 3.30576 16.6563C3.30576 12.2595 3.30576 7.90935 3.30576 3.50024C3.53585 3.47735 3.75426 3.43509 3.97357 3.43509C5.9824 3.42981 7.99302 3.48087 10.0001 3.41748C11.6808 3.36465 13.0758 4.73458 13.2546 6.23833C13.411 7.55367 12.7055 9.18419 11.0714 9.60239C10.6373 9.71332 10.1843 9.78904 9.73581 9.80136C8.74263 9.8313 7.74675 9.81016 6.75357 9.81016C6.54864 9.81016 6.34282 9.81016 6.15946 9.81016C5.87903 9.19652 5.94555 9.07854 6.54325 9.07502C7.66136 9.06974 8.78038 9.04509 9.89849 9.0803C11.1316 9.11904 12.1087 8.35749 12.4097 7.36526C12.7064 6.38536 12.4367 5.38697 11.4903 4.62013C11.0579 4.26884 10.551 4.11565 10.0019 4.11212C8.19975 4.10332 6.39854 4.10684 4.59644 4.11212C4.41668 4.11212 4.23782 4.15439 3.99514 4.18432C3.99334 8.35924 3.99334 12.4901 3.99334 16.6563Z" fill="#FAB957"/>
<path d="M6.03424 8.26916C6.00727 7.70657 6.04322 7.64319 6.5151 7.63967C7.61344 7.6291 8.71088 7.63791 9.80922 7.63438C10.0159 7.63438 10.2272 7.63614 10.4267 7.59564C10.7287 7.53402 10.9525 7.36321 10.9902 7.03658C11.0136 6.83584 11.0352 6.63071 11.0244 6.42997C10.9884 5.79519 10.717 5.54516 10.033 5.53635C8.97692 5.52579 7.91993 5.53283 6.86383 5.53283C6.43331 5.53283 6.00188 5.53283 5.51203 5.53283C5.49405 5.84274 5.46529 6.09894 5.46529 6.35426C5.4617 9.49998 5.46349 12.6448 5.46349 15.7888C5.46349 15.9314 5.47069 16.0723 5.4617 16.2158C5.43294 16.6621 5.36103 16.7079 4.77591 16.634C4.77591 12.7179 4.77591 8.79565 4.77591 4.83907C4.97365 4.82322 5.13453 4.80033 5.29452 4.80033C6.84765 4.79857 8.40079 4.80737 9.95482 4.7968C10.7071 4.79152 11.2437 5.09791 11.614 5.73621C12.0679 6.52066 11.7363 7.8131 10.9462 8.2401C10.8258 8.30525 10.6748 8.33871 10.5355 8.33871C9.08658 8.344 7.6377 8.34047 6.18703 8.33695C6.14928 8.33607 6.11153 8.30614 6.03424 8.26916Z" fill="#FAB957"/>
<path d="M70.029 4.18231C69.8942 4.28796 69.7701 4.38481 69.62 4.50102C69.4996 4.40418 69.3828 4.32494 69.2857 4.22985C68.839 3.79229 68.4291 3.31686 67.9501 2.91804C67.054 2.1688 65.9988 1.733 64.8528 1.44774C63.6052 1.13784 62.3802 1.1889 61.1776 1.52874C59.2065 2.0878 57.621 3.19449 56.5937 4.96852C55.8378 6.27153 55.3713 7.68196 55.5223 9.19275C55.8207 12.1791 57.2947 14.3916 60.1359 15.6717C61.6243 16.3417 63.1792 16.4685 64.744 16.1621C66.4284 15.8328 67.8629 14.9947 68.9954 13.704C69.1032 13.5825 69.1877 13.4416 69.2956 13.321C69.4951 13.1027 69.7027 13.0798 69.8861 13.2541C70.0766 13.4372 69.9868 13.5728 69.8429 13.7656C68.9702 14.933 67.8143 15.7333 66.4931 16.3329C65.0191 17.0029 63.4516 17.1508 61.8867 16.9096C60.2635 16.6578 58.7912 15.9702 57.5707 14.8556C56.4382 13.8246 55.6553 12.5832 55.1969 11.1217C54.7646 9.74477 54.7035 8.34315 55.0387 6.98731C55.6436 4.53448 57.0799 2.64863 59.4213 1.47592C61.1704 0.601665 63.0192 0.3754 64.9076 0.751337C67.0063 1.16953 68.7123 2.26741 69.9742 3.98862C69.9931 4.02207 69.9948 4.06786 70.029 4.18231Z" fill="#FAB957"/>
<path d="M68.9282 12.7386C67.153 15.2742 64.0126 16.2805 61.0627 15.3658C58.1111 14.4492 56.1849 11.9013 56.1813 8.79346C56.1795 5.68736 58.0625 3.20988 60.8398 2.29513C63.9227 1.27825 67.0982 2.20884 68.9677 4.89411C68.8401 5.00504 68.7107 5.12126 68.5516 5.25948C68.4347 5.1732 68.2999 5.10981 68.2154 5.00768C67.7903 4.4856 67.3139 4.0225 66.7414 3.65713C65.9981 3.18258 65.235 2.77759 64.3227 2.70716C63.8958 2.6737 63.4661 2.50643 63.05 2.5434C60.6115 2.76175 58.6854 3.78655 57.5511 6.01311C57.0828 6.93139 56.7898 7.89456 56.8509 8.91672C56.9804 11.0922 57.9241 12.8205 59.8134 14.0469C61.3054 15.0145 62.9574 15.1316 64.6103 14.8507C65.9531 14.6236 67.1054 13.8831 67.9925 12.8214C68.0321 12.7738 68.0734 12.7298 68.113 12.6822C68.4779 12.2597 68.53 12.2632 68.9282 12.7386Z" fill="#FAB957"/>
<path d="M67.8316 5.70184C67.6302 5.80044 67.4675 5.87792 67.2914 5.9642C66.6685 5.14982 65.9 4.52736 64.9176 4.20425C62.9429 3.55715 61.1579 3.89611 59.6677 5.33294C57.2041 7.70742 57.924 11.8242 61.1489 13.2593C63.1524 14.1494 65.429 13.6511 66.9103 12.0567C66.9516 12.0126 66.9714 11.951 67.0109 11.907C67.3543 11.5275 67.4379 11.5311 67.7992 11.9352C66.8348 13.711 64.2696 14.6785 62.4171 14.3519C59.2165 13.7876 57.5447 11.274 57.5178 8.83699C57.4872 6.07073 59.5122 3.78606 62.0765 3.30271C64.4341 2.85986 66.7521 3.83712 67.8316 5.70184Z" fill="#FAB957"/>
<path d="M66.2471 10.8574C66.7603 11.2193 66.7729 11.2721 66.4466 11.6243C64.0873 14.1722 60.1451 13.1086 59.0998 10.2033C58.396 8.24787 59.2742 5.79592 61.443 4.87853C63.1561 4.15395 65.1469 4.52021 66.4179 5.95792C66.7891 6.37612 66.7873 6.39021 66.2111 6.69659C65.2521 5.49394 63.956 5.05197 62.4245 5.29321C61.5949 5.42351 60.9468 5.87692 60.3869 6.49233C59.2616 7.72843 59.231 10.0378 60.5954 11.3267C61.4178 12.1023 62.3975 12.4835 63.5489 12.3726C64.6652 12.2626 65.5164 11.6824 66.2471 10.8574Z" fill="#FAB957"/>
<path d="M73.93 0.433289C74.1547 0.433289 74.3516 0.433289 74.5349 0.433289C74.6913 0.90431 74.7147 16.3204 74.5601 16.9446C74.3713 16.9446 74.1727 16.9446 73.9282 16.9446C73.93 11.4402 73.93 5.95701 73.93 0.433289Z" fill="#FAB957"/>
<path d="M71.6857 16.9508C71.5078 16.9597 71.3109 16.9685 71.0683 16.979C71.0683 11.443 71.0683 5.958 71.0683 0.43428C71.2948 0.43428 71.4916 0.43428 71.6804 0.43428C71.8349 0.909704 71.8457 16.346 71.6857 16.9508Z" fill="#FAB957"/>
<path d="M73.1249 0.467044C73.1249 5.97315 73.1249 11.4388 73.1249 16.8973C72.547 16.9959 72.5038 16.9695 72.4697 16.4897C72.4571 16.3277 72.4643 16.1657 72.4643 16.0028C72.4643 11.1174 72.4643 6.23199 72.4643 1.34482C72.4643 1.18282 72.4571 1.02082 72.4715 0.857948C72.5092 0.437111 72.5667 0.401894 73.1249 0.467044Z" fill="#FAB957"/>
<path d="M75.9333 16.9474C75.4111 16.958 75.3734 16.9368 75.3338 16.5486C75.3159 16.369 75.3231 16.1832 75.3231 16.0018C75.3231 11.1199 75.3231 6.23628 75.3231 1.35439C75.3231 1.17302 75.3141 0.987257 75.3356 0.807652C75.3806 0.435237 75.4471 0.403541 75.9208 0.467811C76.0412 0.925626 76.0592 16.2933 75.9333 16.9474Z" fill="#FAB957"/>
<path d="M77.0177 16.8794C77.5201 15.6574 78.0073 14.4873 78.4791 13.3093C78.8593 12.3594 79.2117 11.398 79.5882 10.448C79.9666 9.49274 80.3621 8.54541 80.7441 7.59192C81.1477 6.58385 81.5414 5.57137 81.9431 4.5633C82.4563 3.27613 82.9687 1.98897 83.4873 0.705324C83.6688 0.253672 84.0598 0.421832 84.4661 0.395419C86.6924 5.88216 88.8594 11.383 91.0983 16.9472C90.7451 16.9472 90.5276 16.9472 90.2885 16.9472C88.2455 11.8417 86.2079 6.75289 84.129 1.5558C83.9708 1.77591 83.8306 1.91237 83.7632 2.07613C82.9929 3.97518 82.228 5.87336 81.4739 7.77945C80.7396 9.63272 80.0251 11.4922 79.2925 13.3472C78.8728 14.4107 78.4378 15.4663 78.0073 16.5264C77.8059 17.0159 77.7214 17.0493 77.0177 16.8794Z" fill="#FAB957"/>
<path d="M88.4212 0.514272C88.9848 0.236061 89.2202 0.436797 89.391 0.857635C90.0804 2.55331 90.7698 4.24987 91.4466 5.95083C92.1755 7.78473 92.8811 9.6248 93.6118 11.4587C94.258 13.0769 94.9259 14.6872 95.5775 16.3036C95.6512 16.485 95.6746 16.6866 95.7213 16.8732C95.0912 17.0493 95.0463 17.0212 94.8522 16.5404C94.1897 14.9011 93.5111 13.2662 92.8541 11.6251C92.384 10.4506 91.949 9.26471 91.4789 8.09023C90.919 6.69038 90.3303 5.29932 89.7694 3.89946C89.3784 2.93013 89.0135 1.94935 88.6333 0.976489C88.5749 0.82946 88.503 0.690354 88.4212 0.514272Z" fill="#FAB957"/>
<path d="M92.5614 16.9594C92.2792 16.9594 92.0769 16.9594 91.854 16.9594C89.6565 11.4638 87.4661 5.98587 85.2739 0.506173C85.9777 0.273743 86.028 0.397 86.2617 0.926129C86.6455 1.7951 86.9744 2.68608 87.3295 3.56737C87.7492 4.60978 88.177 5.64603 88.5914 6.68932C89.0453 7.83034 89.4821 8.97576 89.9378 10.1168C90.5948 11.7579 91.2644 13.3928 91.9269 15.0321C92.121 15.5155 92.316 15.9997 92.4958 16.4883C92.5416 16.6133 92.5344 16.7595 92.5614 16.9594Z" fill="#FAB957"/>
<path d="M94.1489 16.9402C93.8702 16.9402 93.6554 16.9402 93.4325 16.9402C91.234 11.4481 89.049 5.98958 86.8658 0.531016C87.4743 0.310912 87.6181 0.347889 87.8231 0.835638C88.1089 1.51972 88.3686 2.21437 88.6383 2.90373C89.1012 4.08348 89.5578 5.26412 90.0296 6.44035C90.4116 7.39032 90.8197 8.32884 91.1981 9.27881C91.6736 10.4691 92.123 11.6691 92.602 12.8595C93.0757 14.0374 93.5718 15.204 94.0473 16.382C94.112 16.5431 94.112 16.7262 94.1489 16.9402Z" fill="#FAB957"/>
<path d="M84.0763 3.19608C84.5284 3.61603 84.6183 3.97524 84.3783 4.49205C83.9441 5.4244 83.6008 6.39814 83.217 7.35339C82.7308 8.56132 82.2418 9.76836 81.7592 10.9781C81.2064 12.3621 80.659 13.7478 80.1125 15.1336C79.9202 15.6187 79.7377 16.1082 79.5454 16.5933C79.3782 17.0151 79.2452 17.0538 78.6097 16.8698C80.4262 12.3251 82.2427 7.78479 84.0763 3.19608Z" fill="#FAB957"/>
<path d="M80.1976 16.8457C81.7471 12.9648 83.2967 9.0866 84.8489 5.20221C85.2758 5.5262 85.4161 5.8722 85.2507 6.28688C84.7159 7.63391 84.1667 8.9739 83.6256 10.3174C83.2329 11.2868 82.8392 12.2552 82.4518 13.2263C81.9997 14.362 81.5647 15.5039 81.109 16.6397C80.9553 17.0227 80.7935 17.0561 80.1976 16.8457Z" fill="#FAB957"/>
<path d="M81.7692 16.8481C83.0545 13.6267 84.338 10.4079 85.626 7.1759C86.0601 7.55536 86.1715 7.91281 85.9918 8.35214C85.1676 10.3815 84.3362 12.4056 83.5111 14.4349C83.2325 15.1243 82.9619 15.8154 82.6959 16.5101C82.4981 17.0269 82.41 17.0691 81.7692 16.8481Z" fill="#FAB957"/>
<path d="M89.04 14.9097C87.2675 14.9097 85.5589 14.9097 83.8404 14.9097C84.0291 14.245 84.0507 14.2221 84.6574 14.2204C85.8366 14.2168 87.0167 14.2168 88.196 14.2204C88.7667 14.2239 88.7667 14.2327 89.04 14.9097Z" fill="#FAB957"/>
<path d="M88.3327 13.5229C88.1835 13.5422 88.0236 13.5775 87.8645 13.5792C86.9162 13.5845 85.9671 13.588 85.0189 13.5792C84.4301 13.5739 84.405 13.5282 84.5973 12.881C84.7789 12.8687 84.9811 12.8423 85.1806 12.8423C86.066 12.8388 86.9531 12.83 87.8393 12.8476C88.3543 12.8582 88.4029 12.9427 88.3327 13.5229Z" fill="#FAB957"/>
<path d="M87.8339 12.0863C86.9145 12.0863 85.9923 12.0863 85.0746 12.0863C85.0063 11.4462 85.0512 11.3864 85.64 11.3776C86.1765 11.3688 86.7131 11.3688 87.2488 11.3776C87.7108 11.3864 87.8375 11.5413 87.8339 12.0863Z" fill="#FAB957"/>
<path d="M25.8337 16.1627V4.63635C25.8337 4.32997 25.5802 4.07905 25.2647 4.07905H22.1657C21.8529 4.07905 21.5967 3.83078 21.5967 3.52175V1.24764C21.5967 0.941255 21.8502 0.690338 22.1657 0.690338H33.2353C33.5481 0.690338 33.8043 0.938614 33.8043 1.24764V3.52175C33.8043 3.82813 33.5508 4.07905 33.2353 4.07905H30.1363C29.8235 4.07905 29.5673 4.32733 29.5673 4.63635V16.1636C29.5673 16.47 29.3138 16.7209 28.9984 16.7209H26.4026C26.0889 16.72 25.8337 16.47 25.8337 16.1627Z" fill="#FAB957"/>
<path d="M47.1511 16.718H44.3648C44.1455 16.718 43.9432 16.593 43.8498 16.3976L41.5533 11.6037C41.2459 11.0129 40.7561 10.7171 40.0883 10.7171H39.5319C39.2191 10.7171 38.9629 10.9654 38.9629 11.2744V16.1616C38.9629 16.468 38.7095 16.7189 38.394 16.7189H35.8971C35.5843 16.7189 35.3282 16.4706 35.3282 16.1616V1.24739C35.3282 0.941011 35.5816 0.690094 35.8971 0.690094H42.0746C43.7877 0.690094 45.0766 1.11181 45.9386 1.95261C46.8023 2.7934 47.2329 4.01014 47.2329 5.60192C47.2329 6.81514 46.938 7.84082 46.3493 8.68161C45.9727 9.21955 45.4964 9.64567 44.922 9.95645C44.5805 10.1413 44.5257 10.6124 44.8268 10.8571C45.2069 11.1653 45.5341 11.6046 45.8073 12.1707L47.6616 15.9169C47.8458 16.2884 47.5726 16.718 47.1511 16.718ZM43.2511 7.14617C43.6053 6.85916 43.7841 6.38813 43.7841 5.73751C43.7841 5.07103 43.6062 4.58945 43.2511 4.29363C42.8961 3.99781 42.3101 3.85078 41.4949 3.85078H39.4932C39.1805 3.85078 38.9243 4.09906 38.9243 4.40808V7.02291C38.9243 7.3293 39.1778 7.58021 39.4932 7.58021H41.4949C42.3092 7.57845 42.8961 7.43583 43.2511 7.14617Z" fill="#FAB957"/>
<path d="M49.5256 16.1607V1.24739C49.5256 0.941011 49.7791 0.690094 50.0945 0.690094H52.6525C52.9653 0.690094 53.2215 0.93837 53.2215 1.24739V16.1607C53.2215 16.4671 52.968 16.718 52.6525 16.718H50.0945C49.78 16.718 49.5256 16.468 49.5256 16.1607Z" fill="#FAB957"/>
<path d="M17.6613 0.572632H15.4961C15.2642 0.572632 15.0547 0.709977 14.9685 0.922156L14.8193 1.28401C14.7366 1.48298 14.7779 1.71453 14.9289 1.86948C15.834 2.79656 16.4731 3.97455 16.7292 5.28461C16.7346 5.31102 16.7418 5.33919 16.7526 5.36561L18.2788 9.39438C18.4172 9.75799 18.1421 10.1454 17.7458 10.1454H16.1243C15.9374 10.1454 15.7585 10.2317 15.6525 10.3831C14.4013 12.1835 12.2936 13.3677 9.90729 13.3677H9.83539L8.81794 15.8337C8.66694 16.2009 8.94198 16.5988 9.34554 16.5988H11.8226C12.0599 16.5988 12.2729 16.4544 12.3556 16.237L13.3434 13.6415C13.4261 13.4232 13.6382 13.2796 13.8764 13.2796H19.3519C19.5892 13.2796 19.8022 13.424 19.8849 13.6415L20.8727 16.237C20.9554 16.4553 21.1675 16.5988 21.4057 16.5988H23.8208C24.2244 16.5988 24.4994 16.1982 24.3484 15.8337L18.1826 0.919515C18.0999 0.709977 17.8932 0.572632 17.6613 0.572632Z" fill="#FAB957"/>
<path d="M6.05808 12.5733C6.03651 12.3568 6.01494 12.1534 5.98977 11.9069C6.23964 11.891 6.4203 11.8681 6.60006 11.8681C7.6984 11.8646 8.79584 11.8435 9.89418 11.8716C12.2535 11.9333 14.2138 10.4595 14.9823 8.49878C16.0878 5.68322 14.5931 2.71799 11.9857 1.71608C11.2604 1.43787 10.526 1.29964 9.75576 1.29964C7.18698 1.3014 4.61909 1.29964 2.05031 1.29964C1.9047 1.29964 1.76089 1.2926 1.61439 1.30492C1.21442 1.33662 1.16229 1.39297 1.14252 1.79003C1.13712 1.91153 1.14252 2.03303 1.14252 2.1554C1.14252 6.74148 1.14252 11.3249 1.14252 15.911C1.14252 16.1487 1.14252 16.3873 1.14252 16.6567C0.871077 16.6567 0.677834 16.6567 0.498073 16.6567C0.368645 16.1593 0.341681 1.41321 0.467514 0.706243C0.667048 0.681591 0.887255 0.632288 1.10477 0.632288C4.087 0.627006 7.06923 0.655179 10.0524 0.621724C12.7722 0.59179 15.1441 2.45739 15.8299 4.88821C16.5067 7.28734 15.9341 9.44963 14.035 11.184C13.1245 12.0178 11.9812 12.4659 10.7714 12.5469C9.23356 12.6526 7.67593 12.5733 6.05808 12.5733Z" fill="#FAB957"/>
<path d="M1.91281 16.6553C1.91281 11.7734 1.91281 6.93374 1.91281 2.05009C2.12493 2.03248 2.30379 2.00607 2.48355 2.00607C5.05234 2.00254 7.61842 2.00078 10.1872 2.00607C11.9875 2.00959 13.7456 3.35838 14.3541 4.94665C14.6902 5.82442 14.7253 6.72245 14.5338 7.57381C14.1752 9.16736 13.2306 10.3718 11.584 10.9132C11.2002 11.04 10.7867 11.1316 10.3831 11.1404C9.07808 11.1685 7.77302 11.1545 6.46975 11.1509C6.26842 11.1509 6.03383 11.1861 5.98709 10.8974C5.94934 10.6597 6.09315 10.4686 6.3583 10.444C6.583 10.4228 6.81399 10.4352 7.04049 10.4352C8.07502 10.4334 9.11224 10.4123 10.1468 10.4387C11.7466 10.4792 13.147 9.38041 13.6009 8.06772C14.3981 5.75839 13.5146 4.09881 11.6478 3.0608C11.2909 2.86183 10.8308 2.7597 10.4164 2.75442C7.93211 2.72448 5.44691 2.73681 2.96082 2.73505C2.87993 2.73505 2.79903 2.75442 2.64444 2.77555C2.62826 3.02559 2.5977 3.28003 2.5977 3.53182C2.59411 7.6099 2.5959 11.6862 2.5959 15.7643C2.5959 15.9069 2.6013 16.0478 2.59411 16.1913C2.57343 16.6623 2.52669 16.6958 1.91281 16.6553Z" fill="#FAB957"/>
<path d="M3.99334 16.6563C3.73269 16.6563 3.54124 16.6563 3.30576 16.6563C3.30576 12.2595 3.30576 7.90935 3.30576 3.50024C3.53585 3.47735 3.75426 3.43509 3.97357 3.43509C5.9824 3.42981 7.99302 3.48087 10.0001 3.41748C11.6808 3.36465 13.0758 4.73458 13.2546 6.23833C13.411 7.55367 12.7055 9.18419 11.0714 9.60239C10.6373 9.71332 10.1843 9.78904 9.73581 9.80136C8.74263 9.8313 7.74675 9.81016 6.75357 9.81016C6.54864 9.81016 6.34282 9.81016 6.15946 9.81016C5.87903 9.19652 5.94555 9.07854 6.54325 9.07502C7.66136 9.06974 8.78038 9.04509 9.89849 9.0803C11.1316 9.11904 12.1087 8.35749 12.4097 7.36526C12.7064 6.38536 12.4367 5.38697 11.4903 4.62013C11.0579 4.26884 10.551 4.11565 10.0019 4.11212C8.19975 4.10332 6.39854 4.10684 4.59644 4.11212C4.41668 4.11212 4.23782 4.15439 3.99514 4.18432C3.99334 8.35924 3.99334 12.4901 3.99334 16.6563Z" fill="#FAB957"/>
<path d="M6.03424 8.26916C6.00727 7.70657 6.04322 7.64319 6.5151 7.63967C7.61344 7.6291 8.71088 7.63791 9.80922 7.63438C10.0159 7.63438 10.2272 7.63614 10.4267 7.59564C10.7287 7.53402 10.9525 7.36321 10.9902 7.03658C11.0136 6.83584 11.0352 6.63071 11.0244 6.42997C10.9884 5.79519 10.717 5.54516 10.033 5.53635C8.97692 5.52579 7.91993 5.53283 6.86383 5.53283C6.43331 5.53283 6.00188 5.53283 5.51203 5.53283C5.49405 5.84274 5.46529 6.09894 5.46529 6.35426C5.4617 9.49998 5.46349 12.6448 5.46349 15.7888C5.46349 15.9314 5.47069 16.0723 5.4617 16.2158C5.43294 16.6621 5.36103 16.7079 4.77591 16.634C4.77591 12.7179 4.77591 8.79565 4.77591 4.83907C4.97365 4.82322 5.13453 4.80033 5.29452 4.80033C6.84765 4.79857 8.40079 4.80737 9.95482 4.7968C10.7071 4.79152 11.2437 5.09791 11.614 5.73621C12.0679 6.52066 11.7363 7.8131 10.9462 8.2401C10.8258 8.30525 10.6748 8.33871 10.5355 8.33871C9.08658 8.344 7.6377 8.34047 6.18703 8.33695C6.14928 8.33607 6.11153 8.30614 6.03424 8.26916Z" fill="#FAB957"/>
</svg>
